<svg xmlns="http://www.w3.org/2000/svg" fill="none" viewBox="0 0 284 40">
  <defs/>
  <path fill="#000" d="M136.503 35.074c-1.019 1.349-2.485 2.092-4.122 2.092-2.6 0-3.276-1.189-3.276-3.269l.115-19.291h6.333V13.37h-6.333V4.846h-.733c-1.225 5.268-4.409 8.343-8.131 8.914v.846l3.779-.012s-.114 18-.114 18.56c0 2.149.401 3.497 1.58 4.515 1.134.96 2.485 1.405 4.753 1.405 3.16 0 5.371-1.634 6.55-3.611l-.401-.389z"/>
  <path fill="#000" fill-rule="evenodd" d="M161.708 25.886c0-8.126-5.771-13.086-12.379-13.086-6.55 0-12.379 4.96-12.379 13.143s5.771 13.143 12.379 13.143c6.619 0 12.379-5.017 12.379-13.2zm-12.379 12.297c-1.409 0-2.989-.446-4.18-1.692-1.809-1.92-2.714-5.474-2.714-10.548 0-5.189.905-8.743 2.771-10.549 1.123-1.188 2.714-1.691 4.123-1.691 1.351 0 2.932.446 4.123 1.691 1.866 1.863 2.771 5.417 2.771 10.549 0 5.074-.962 8.686-2.771 10.548-1.18 1.246-2.714 1.692-4.123 1.692z" clip-rule="evenodd"/>
  <path fill="#000" d="M177.695 12.8c-1.924 0-3.161.731-4.18 1.577-1.134 1.074-2.199 2.492-3.058 5.143h-.172c0-.209.034-1.789.064-3.25v-.005c.027-1.254.051-2.419.051-2.55 0-.172-.115-.344-.401-.344h-7.913v.503h.005c.674.058 1.359.116 1.976.56.516.332.905.846 1.019 1.577.172.732.172 2.823.172 3.726V31.76c0 1.463-.057 2.983-.229 4-.332 1.131-.733 1.52-1.523 1.92-.504.229-1.076.343-1.523.4v.503h11.704v-.503c-.504-.057-.905-.114-1.409-.343-.458-.171-.79-.571-1.134-1.188-.504-1.075-.79-2.252-.79-5.075V28.23c0-1.623.035-3.212.241-4.823.526-4.217 2.645-7.589 4.168-7.589.676 0 1.065.674 1.466 1.634.458 1.075 1.019 1.44 2.657 1.44 1.58 0 2.485-1.302 2.485-2.765 0-1.075-.344-1.806-.848-2.366-.63-.617-1.637-.96-2.828-.96zM194.838 15.063c-1.581 1.577-2.714 5.131-2.714 10.377 0 5.474 1.133 8.457 2.714 10.206 1.019 1.131 2.599 1.863 4.409 1.863 5.199 0 7.352-3.898 8.245-6.823l.847.285c-1.248 4.572-4.409 8.126-9.779 8.126-3.333 0-5.761-1.074-7.627-2.651-2.428-2.035-4.295-5.303-4.295-10.492 0-7.337 5.199-13.143 11.922-13.143 4.408 0 6.447 1.189 7.741 2.48.962.846 1.523 1.978 1.523 3.098 0 1.52-.962 2.308-2.428 2.308-1.637 0-2.542-1.074-2.828-2.994-.676-3.04-1.523-4-4.066-4a5.545 5.545 0 00-3.664 1.36z"/>
  <path fill="#000" fill-rule="evenodd" d="M235.892 25.886c0-8.126-5.772-13.086-12.379-13.086-6.551 0-12.38 4.96-12.38 13.143s5.772 13.143 12.38 13.143c6.619 0 12.379-5.017 12.379-13.2zm-12.379 12.297c-1.409 0-2.989-.446-4.18-1.692-1.81-1.92-2.714-5.474-2.714-10.548 0-5.189.904-8.743 2.771-10.549 1.122-1.188 2.714-1.691 4.123-1.691 1.351 0 2.931.446 4.122 1.691 1.867 1.863 2.771 5.417 2.771 10.549 0 5.074-.961 8.686-2.771 10.548-1.179 1.246-2.714 1.692-4.122 1.692z" clip-rule="evenodd"/>
  <path fill="#000" d="M183.867 36.229a2.871 2.871 0 01-2.874 2.868 2.872 2.872 0 01-2.875-2.868 2.872 2.872 0 012.875-2.869 2.871 2.871 0 012.874 2.869zM236.476 38.571v-.445c.446-.057 1.076-.286 1.466-.446 1.019-.4 1.523-.846 1.752-2.091.172-.96.172-2.423.172-4.058V19.737c0-1.463 0-2.994-.172-3.783-.172-.788-.447-1.303-.962-1.577-.504-.343-1.248-.446-1.924-.503v-.503h7.913c.286 0 .344.115.344.343 0 .144-.03 1.305-.058 2.456l-.001.01c-.028 1.129-.056 2.244-.056 2.38h.229c.79-1.977 1.752-3.211 3.046-4.114 1.248-1.017 2.943-1.635 5.371-1.635 2.256 0 3.905.618 4.97 1.806.905.96 1.466 2.149 1.58 4.057h.172c.962-2.251 2.038-3.44 3.275-4.285 1.409-1.018 3.001-1.578 5.199-1.578 2.428 0 3.848.618 4.97 1.749 1.248 1.131 1.81 2.88 1.81 5.691v11.623c0 1.52.057 2.937.286 3.84.286 1.075.618 1.577 1.466 1.977.105.036.212.075.319.114.403.146.818.296 1.261.332v.446h-11.589v-.503l.072-.015c.752-.164 1.293-.28 1.737-.602.562-.4.905-.96 1.077-1.692.229-.96.229-2.48.229-4.228v-10.8c0-1.749-.286-3.04-.905-4-.618-.96-1.637-1.463-3-1.463-2.485 0-4.409 1.634-5.485 4.629-.562 1.52-.733 3.382-.733 6.148v5.726c0 .289-.002.571-.004.845v.004c-.008 1.327-.014 2.45.175 3.15.287.79.619 1.407 1.249 1.807.446.228.962.445 1.694.56v.445h-11.417v-.503c.79-.114 1.351-.285 1.81-.56.618-.342.962-.845 1.076-1.577.286-1.017.344-2.651.344-4.4V20.697c0-1.577-.287-2.823-.676-3.668-.676-1.189-1.752-1.749-3.332-1.749-2.657 0-4.409 1.806-5.429 4.686-.618 1.748-.79 3.497-.79 6.091v5.497c0 1.749 0 3.155.287 4.229.171.731.446 1.246.904 1.577.447.4 1.134.617 2.039.731v.48h-11.761z"/>
  <path fill="#000" fill-rule="evenodd" d="M282.408 18.937a.831.831 0 01-.137-.457l-.034-.434c-.023-.275-.126-.469-.355-.56.343-.149.435-.435.435-.709 0-.537-.413-.834-1.054-.834h-1.282v3.006h.526v-1.212h.813c.298 0 .39.103.413.434l.023.309c.011.194.034.354.114.457h.538zm-1.156-2.526c.343 0 .526.138.526.423 0 .275-.171.423-.481.423h-.801v-.846h.756z" clip-rule="evenodd"/>
  <path fill="#000" fill-rule="evenodd" d="M281.103 20.274c1.626 0 2.897-1.234 2.897-2.8 0-1.565-1.271-2.8-2.897-2.8-1.638 0-2.909 1.235-2.909 2.8 0 1.555 1.271 2.8 2.909 2.8zm0-5.063c1.305 0 2.302.995 2.302 2.263 0 1.269-.997 2.252-2.302 2.252-1.317 0-2.313-.983-2.313-2.252 0-1.268.996-2.263 2.313-2.263z" clip-rule="evenodd"/>
  <path fill="#D92228" d="M117.024 32.48c0 1.303 0 2.309.115 3.154.286 1.189.904 1.692 1.523 1.977.503.229 1.076.4 1.58.446v.503h-11.635v-.503c.504-.057 1.134-.228 1.523-.446.733-.342 1.294-.788 1.523-1.748.229-.96.229-2.034.229-3.383V6.32c0-.846 0-2.937-.114-3.669-.229-.788-.504-1.302-.962-1.634-.561-.343-1.077-.446-1.981-.503V0h7.855c.287 0 .401.114.401.4 0 .487-.01 1.015-.022 1.616-.016.793-.035 1.716-.035 2.841V32.48zM53.296 14.377c1.019-.846 2.256-1.577 4.18-1.577 1.19 0 2.198.343 2.828.96.504.56.848 1.291.848 2.366 0 1.463-.905 2.765-2.485 2.765-1.638 0-2.2-.365-2.657-1.44-.401-.96-.79-1.634-1.466-1.634-1.523 0-3.642 3.372-4.168 7.589-.206 1.611-.24 3.2-.24 4.823v3.245c0 2.823.285 4 .79 5.075.343.617.675 1.017 1.133 1.188.504.229.905.286 1.409.343v.503H41.764v-.503c.447-.057 1.02-.171 1.523-.4.79-.4 1.191-.789 1.523-1.92.172-1.017.23-2.537.23-4V19.737c0-.903 0-2.994-.173-3.726a2.222 2.222 0 00-1.019-1.577c-.617-.444-1.302-.502-1.976-.56h-.005v-.503h7.913c.286 0 .401.172.401.343 0 .132-.024 1.297-.05 2.55-.031 1.463-.065 3.047-.065 3.256h.172c.86-2.651 1.924-4.069 3.058-5.143z"/>
  <path fill="#D92228" fill-rule="evenodd" d="M106.615 38.08h.045v.503c-.847.24-1.901.503-3.08.503-1.191 0-2.096-.275-2.6-.617-.801-.56-1.19-1.349-1.248-3.098h-.229c-.905 1.863-2.932 3.726-6.608 3.726-3.962 0-7.008-2.206-7.008-6.263 0-1.52.447-3.04 1.638-4.171 1.428-1.335 3.063-1.83 5.023-2.423.523-.159 1.07-.324 1.641-.514 3.677-1.075 5.371-2.595 5.486-4.343v-3.84c0-2.937-1.077-3.897-3.447-3.897-1.02 0-1.924.285-2.6.731-.904.617-1.19 1.692-1.248 3.269-.057 1.977-1.076 2.708-2.714 2.708-1.294 0-2.37-.788-2.37-2.251 0-1.132.458-1.977 1.19-2.709 1.41-1.577 4.97-2.594 7.627-2.594 5.028 0 8.589 1.749 8.589 5.589v15.017c0 2.48.115 3.554.618 4.114.275.389.733.56 1.295.56zm-11.635-.8c1.98 0 4.58-1.691 4.638-4.571v-8.96c-.89 1.17-2.546 1.951-3.843 2.564l-.062.03c-1.752.731-2.944 1.348-3.62 2.194-.732.846-1.018 2.092-1.018 3.783 0 3.497 1.42 4.96 3.905 4.96zM83.883 30.971l-.95-.297c-1.1 3.577-3.424 6.766-8.131 6.766-2.096 0-3.95-.674-5.256-2.149-1.523-1.691-2.485-5.131-2.485-9.417 0-.445 0-.765.057-1.211h16.559c.114-.732.114-1.886.114-2.514 0-4.286-3-9.36-10.226-9.36-6.665 0-12.035 5.531-12.035 13.257 0 3.84 1.076 7.223 3.561 9.703 2.153 2.194 5.027 3.325 8.646 3.325 5.336 0 8.703-3.223 10.158-8.114h-.012v.011zM69.947 15.223c.961-.96 2.255-1.463 3.675-1.463 1.58 0 2.543.446 3.447 1.246 1.077 1.074 1.638 2.88 1.638 5.805 0 2.195-.344 2.652-2.038 2.652h-9.494c.344-3.726 1.363-6.994 2.772-8.24zM34.733 22.583L17.383 4.789 0 22.583h5.302v15.966h24.14V22.583h5.29zm-10.73-4.663c-.459-.457-1.191-.709-2.073-.709-1.454 0-2.37.606-3 1.132l-.012.011c-.63.606-1.351 1.429-1.947 3.029.01-.352.018-.81.027-1.27l.008-.364c.023-.892.034-1.658.034-1.749 0-.194-.137-.4-.435-.4h-5.646v.48l.15.011c.457.035.892.08 1.293.366.355.24.573.572.641.994.115.492.115 1.932.115 2.549v8.171c0 .835-.023 1.978-.149 2.743-.229.743-.47.972-.962 1.223a3.403 3.403 0 01-1.008.263l-.16.011v.48h8.428v-.48l-.148-.011a2.824 2.824 0 01-.94-.229c-.251-.091-.469-.32-.698-.742-.332-.709-.538-1.509-.538-3.452v-3.406c0-1.028.046-2.022.08-2.457.378-2.72 1.855-4.903 2.817-4.903.366 0 .607.4.87 1.04.31.732.745 1.509 1.993 1.509 1.237 0 1.89-1.04 1.89-2.08.01-.709-.195-1.28-.63-1.76z" clip-rule="evenodd"/>
</svg>
